# xmcd
#
# Track frame offsets:
#	180
#	19933
#	37975
#	67445
#	82317
#	103808
#	131307
#	144282
#	155801
#	179646
#
# Disc length: 2703 seconds
#
# Revision: 1
# Processed by: cddbd v1.4PL0 Copyright (c) Steve Scherf et al.
# Submitted via: audiograbber 1.81.01
#
DISCID=940a8d0a
DTITLE=Juanita Williams - It's Who I Am
DYEAR=1998
DGENRE=
TTITLE0=Every Day I Have The Blues
TTITLE1=Teach Me Tonight
TTITLE2=God Bless This Child
TTITLE3=Evil Gal Blues
TTITLE4=Please Don't Say You're Sorry Again
TTITLE5=Until You Come Back To Me
TTITLE6=Today O Sing The Blues
TTITLE7=I Just Found Out About Love
TTITLE8=So Good 
TTITLE9=What A Wonderful World
EXTD=
EXTT0=
EXTT1=
EXTT2=
EXTT3=
EXTT4=
EXTT5=
EXTT6=
EXTT7=
EXTT8=
EXTT9=
PLAYORDER=
